:version 1.10
:name ASF
:units
  mass 1
  length 1
  angle deg
:documentation
  ASF file generated by Kaydara
:root
  axis xyz
  order  tx ty tz rx ry rz
  position 0 0 0
  orientation 0 0 0
:bonedata
  begin
    id 1
    name lfemurDummy
    direction 0.61522 -0.761478 0.204097
    length 5.68318
    axis 0 -0 0 xyz
  end
  begin
    id 2
    name lfemur
    direction 0.34202 -0.939693 -5.84747e-008
    length 16.9147
    axis 0 -0 20 xyz
    dof rx ry rz
    limits( -inf , inf )
( -inf , inf )
( -inf , inf )

  end
  begin
    id 3
    name ltibia
    direction 0.34202 -0.939693 1.20839e-009
    length 18.0532
    axis 0 -0 20 xyz
    dof rz ry rx
    limits( -inf , inf )
( -inf , inf )
( -inf , inf )

  end
  begin
    id 4
    name lfoot
    direction 0.0841971 -0.23133 0.969225
    length 5.23822
    axis -90 7.62852e-016 20 xyz
    dof ry rx rz
    limits( -inf , inf )
( -inf , inf )
( -inf , inf )

  end
  begin
    id 5
    name ltoes
    direction 0 0 0
    length 0
    axis 0 0 0 xyz
    dof rz ry rx
    limits( -inf , inf )
( -inf , inf )
( -inf , inf )

  end
  begin
    id 6
    name rfemurDummy
    direction -0.625247 -0.75382 0.202044
    length 5.74091
    axis 0 -0 0 xyz
  end
  begin
    id 7
    name rfemur
    direction -0.34202 -0.939693 -1.47013e-008
    length 16.4922
    axis 0 -0 -20 xyz
    dof rx ry rz
    limits( -inf , inf )
( -inf , inf )
( -inf , inf )

  end
  begin
    id 8
    name rtibia
    direction -0.34202 -0.939693 -7.74345e-010
    length 18.2421
    axis 0 -0 -20 xyz
    dof rz ry rx
    limits( -inf , inf )
( -inf , inf )
( -inf , inf )

  end
  begin
    id 9
    name rfoot
    direction -0.124331 -0.341598 0.931586
    length 5.45787
    axis -90 -7.62852e-016 -20 xyz
    dof ry rx rz
    limits( -inf , inf )
( -inf , inf )
( -inf , inf )

  end
  begin
    id 10
    name rtoes
    direction 0 0 0
    length 0
    axis 0 0 0 xyz
    dof rz ry rx
    limits( -inf , inf )
( -inf , inf )
( -inf , inf )

  end
  begin
    id 11
    name lowerbackDummy
    direction 0 0 0
    length 0
    axis 0 -0 0 xyz
  end
  begin
    id 12
    name lowerback
    direction -0.0218484 0.994884 -0.0986304
    length 4.45607
    axis 0 -0 0 xyz
    dof rx ry rz
    limits( -inf , inf )
( -inf , inf )
( -inf , inf )

  end
  begin
    id 13
    name upperback
    direction -0.00973057 0.999717 -0.0217111
    length 4.47449
    axis 0 -0 0 xyz
    dof rx ry rz
    limits( -inf , inf )
( -inf , inf )
( -inf , inf )

  end
  begin
    id 14
    name thorax
    direction -0.000928171 0.999699 0.0245198
    length 4.50973
    axis 0 -0 0 xyz
    dof rx ry rz
    limits( -inf , inf )
( -inf , inf )
( -inf , inf )

  end
  begin
    id 15
    name rclavicle
    direction -0.9009 0.425937 -0.0834055
    length 7.28587
    axis 0 -0 0 xyz
    dof rx ry rz
    limits( -inf , inf )
( -inf , inf )
( -inf , inf )

  end
  begin
    id 16
    name rhumerus
    direction -1 -2.23604e-007 -1.42637e-007
    length 13.5704
    axis 180 30 90 xyz
    dof rx ry rz
    limits( -inf , inf )
( -inf , inf )
( -inf , inf )

  end
  begin
    id 17
    name rradius
    direction -1 5.68281e-008 -4.4952e-007
    length 8.06782
    axis 180 30 90 xyz
    dof rz ry rx
    limits( -inf , inf )
( -inf , inf )
( -inf , inf )

  end
  begin
    id 18
    name rwrist
    direction -1 1.51393e-007 1.38143e-007
    length 4.03391
    axis -90 -90 0 xyz
    dof rz rx ry
    limits( -inf , inf )
( -inf , inf )
( -inf , inf )

  end
  begin
    id 19
    name rthumb
    direction 0 0 0
    length 0
    axis 0 0 0 xyz
    dof ry rx rz
    limits( -inf , inf )
( -inf , inf )
( -inf , inf )

  end
  begin
    id 20
    name rhand
    direction -1 -3.34077e-007 -5.59631e-007
    length 1.29744
    axis -90 -90 0 xyz
    dof ry rx rz
    limits( -inf , inf )
( -inf , inf )
( -inf , inf )

  end
  begin
    id 21
    name rfingers
    direction 0 0 0
    length 0
    axis 0 0 0 xyz
    dof rz ry rx
    limits( -inf , inf )
( -inf , inf )
( -inf , inf )

  end
  begin
    id 22
    name lclavicle
    direction 0.940017 0.332249 -0.0773232
    length 8.29589
    axis 0 -0 0 xyz
    dof rx ry rz
    limits( -inf , inf )
( -inf , inf )
( -inf , inf )

  end
  begin
    id 23
    name lhumerus
    direction 1 7.41158e-008 -1.44768e-008
    length 12.0042
    axis 180 -30 -90 xyz
    dof rx ry rz
    limits( -inf , inf )
( -inf , inf )
( -inf , inf )

  end
  begin
    id 24
    name lradius
    direction 1 -1.32972e-007 3.10821e-007
    length 8.1902
    axis 180 -30 -90 xyz
    dof rz ry rx
    limits( -inf , inf )
( -inf , inf )
( -inf , inf )

  end
  begin
    id 25
    name lwrist
    direction 1 3.08957e-007 4.01394e-007
    length 4.09509
    axis -90 90 0 xyz
    dof rz rx ry
    limits( -inf , inf )
( -inf , inf )
( -inf , inf )

  end
  begin
    id 26
    name lthumb
    direction 0 0 0
    length 0
    axis 0 0 0 xyz
    dof ry rx rz
    limits( -inf , inf )
( -inf , inf )
( -inf , inf )

  end
  begin
    id 27
    name lhand
    direction 1 -1.64125e-007 -6.99514e-007
    length 1.37229
    axis -90 90 0 xyz
    dof ry rx rz
    limits( -inf , inf )
( -inf , inf )
( -inf , inf )

  end
  begin
    id 28
    name lfingers
    direction 0 0 0
    length 0
    axis 0 0 0 xyz
    dof rz ry rx
    limits( -inf , inf )
( -inf , inf )
( -inf , inf )

  end
  begin
    id 29
    name lowerneck
    direction -0.030798 0.998024 0.0547665
    length 3.93918
    axis 0 -0 0 xyz
    dof rx ry rz
    limits( -inf , inf )
( -inf , inf )
( -inf , inf )

  end
  begin
    id 30
    name upperneck
    direction 0.0531588 0.996611 -0.0627736
    length 3.95491
    axis 0 -0 0 xyz
    dof rx ry rz
    limits( -inf , inf )
( -inf , inf )
( -inf , inf )

  end
  begin
    id 31
    name head
    direction 0 0 0
    length 0
    axis 0 0 0 xyz
    dof rx ry rz
    limits( -inf , inf )
( -inf , inf )
( -inf , inf )

  end
:hierarchy
  begin
    root lfemurDummy rfemurDummy lowerbackDummy
    lfemurDummy lfemur
    lfemur ltibia
    ltibia lfoot
    lfoot ltoes
    rfemurDummy rfemur
    rfemur rtibia
    rtibia rfoot
    rfoot rtoes
    lowerbackDummy lowerback
    lowerback upperback
    upperback thorax
    thorax rclavicle lclavicle lowerneck
    rclavicle rhumerus
    rhumerus rradius
    rradius rwrist
    rwrist rthumb rhand
    rhand rfingers
    lclavicle lhumerus
    lhumerus lradius
    lradius lwrist
    lwrist lthumb lhand
    lhand lfingers
    lowerneck upperneck
    upperneck head
  end

:SAMPLES-PER-SECOND 30
:FULLY-SPECIFIED
:DEGREES
27
root  13.57297822 38.13355513 -8.809288656 -11.125 -72.93599701 12.39900208
lowerback  9.681440353 -0.6291959882 -6.762979984
upperback  4.63572979 -1.518949986 1.767549992
thorax  -0.3564839959 -0.9410160184 5.806749821
lowerneck  -1.239159942 4.594950199 -3.347800016
upperneck  10.42720032 5.942180157 2.811439991
head  3.388499975 2.872679949 1.686949968
lclavicle  0 -9.442270133e-015 7.951389973e-016
lhumerus  16.80509949 -15.69089985 76.92479706
lradius  2.409032925e-031 -2.581744449e-031 133.0180054
lwrist  -3.531125038e-031 -1.765562519e-031 3.682660103
lhand  -1.496451383e-031 -27.76390076 20.11240005
lfingers  90 7.125020027 -90
lthumb  89.89689403 5.08795885 91.16245106
rclavicle  0 -9.442270133e-015 7.951389973e-016
rhumerus  15.74300003 11.7883997 -77.61979675
rradius  -2.440349318e-031 2.55216364e-031 133.7169952
rwrist  7.062250077e-031 -1.765562519e-031 -8.892820358
rhand  -7.920061211e-032 -33.2840004 9.303460121
rfingers  -90 -7.125020027 -90
rthumb  -92.93752616 -24.25625642 -97.11982154
rfemur  -29.71520042 17.23769951 -1.091420054
rtibia  -0 0 65.24449921
rfoot  -0 -18.10390091 -10.24129963
rtoes  5.373923086 19.29304026 -105.8922705
lfemur  0.4301759899 2.438009977 -18.36330032
ltibia  -0 0 51.48550034
lfoot  -0 -12.57299995 -14.47789955
ltoes  -4.250644065 -19.5611806 -102.515957
28
root  13.71428873 38.11644306 -8.85779989 -11.06300354 -73.24199677 12.56300354
lowerback  9.106539726 -0.5188429952 -6.548870087
upperback  4.471970081 -1.311370015 1.603870034
thorax  -0.2548640072 -0.8259729743 5.480539799
lowerneck  -1.240270019 4.434599876 -3.467060089
upperneck  10.56280041 5.707789898 3.039109945
head  3.434669971 2.758339882 1.780599952
lclavicle  0 -9.442270133e-015 7.951389973e-016
lhumerus  17.28689957 -16.17009926 76.73509979
lradius  2.403214191e-031 -2.587161686e-031 132.8890076
lwrist  -1.059337512e-030 -1.765562519e-031 3.32656002
lhand  -1.496451383e-031 -27.76390076 20.11240005
lfingers  90 7.125020027 -90
lthumb  89.89689403 5.08795885 91.16245106
rclavicle  0 -9.442270133e-015 7.951389973e-016
rhumerus  15.51469994 11.75030041 -78.05310059
rradius  -2.466280002e-031 2.52711436e-031 134.302002
rwrist  1.412450015e-030 -1.765562519e-031 -8.54570961
rhand  -7.920061211e-032 -33.2840004 9.303460121
rfingers  -90 -7.125020027 -90
rthumb  -92.93752616 -24.25625642 -97.11982154
rfemur  -29.06119919 16.55949974 -0.3399679959
rtibia  -0 0 67.36209869
rfoot  -0 -18.10650063 -9.69946003
rtoes  5.373923086 19.29304026 -105.8922705
lfemur  -0.1429509968 3.216880083 -18.14179993
ltibia  -0 0 51.86429977
lfoot  -0 -12.65960026 -14.96570015
ltoes  -4.250644065 -19.5611806 -102.515957
29
root  13.83680058 38.12199991 -8.898310774 -11.01800537 -73.44300079 12.83299255
lowerback  8.43241024 -0.4657999873 -6.294089794
upperback  4.294499874 -1.172289968 1.384770036
thorax  -0.1020030007 -0.7451739907 5.080170155
lowerneck  -1.349020004 4.31167984 -3.364259958
upperneck  10.85229969 5.52850008 3.097860098
head  3.564219952 2.671869993 1.789630055
lclavicle  0 -9.442270133e-015 7.951389973e-016
lhumerus  17.61540031 -16.60230064 76.43450165
lradius  2.399734624e-031 -2.590389502e-031 132.8119965
lwrist  -7.062250077e-031 -1.765562519e-031 3.075560093
lhand  -1.496451383e-031 -27.76390076 20.11240005
lfingers  90 7.125020027 -90
lthumb  89.89689403 5.08795885 91.16245106
rclavicle  0 -9.442270133e-015 7.951389973e-016
rhumerus  15.22329998 12.07600021 -78.65750122
rradius  -2.489681904e-031 2.50406231e-031 134.8350067
rwrist  1.412450015e-030 -1.765562519e-031 -7.973460197
rhand  -7.920061211e-032 -33.2840004 9.303460121
rfingers  -90 -7.125020027 -90
rthumb  -92.93752616 -24.25625642 -97.11982154
rfemur  -28.28660011 15.75860023 0.3764939904
rtibia  -0 0 69.16790009
rfoot  -0 -17.99950027 -8.978960037
rtoes  5.373923086 19.29304026 -105.8922705
lfemur  -0.8459370136 3.606559992 -18.06539917
ltibia  -0 0 52.25120163
lfoot  -0 -12.45400047 -15.44999981
ltoes  -4.250644065 -19.5611806 -102.515957
30
root  13.94946631 38.15000038 -8.936488535 -10.69000244 -73.68000031 12.80900574
lowerback  7.846879959 -0.5058180094 -6.04527998
upperback  4.091519833 -1.165989995 1.232130051
thorax  -0.002094160067 -0.7296519876 4.768290043
lowerneck  -1.422160029 4.352900028 -3.175139904
upperneck  11.06649971 5.584300041 2.960910082
head  3.659980059 2.698450089 1.721560001
lclavicle  0 -9.442270133e-015 7.951389973e-016
lhumerus  17.58349991 -16.72130013 76.22840118
lradius  2.39996089e-031 -2.590179871e-031 132.8170013
lwrist  -3.531125038e-031 -3.531125038e-031 2.911309958
lhand  -1.496451383e-031 -27.76390076 20.11240005
lfingers  90 7.125020027 -90
lthumb  89.89689403 5.08795885 91.16245106
rclavicle  0 -9.442270133e-015 7.951389973e-016
rhumerus  14.99540043 12.86740017 -79.33329773
rradius  -2.509791639e-031 2.483906191e-031 135.2969971
rwrist  1.412450015e-030 -1.765562519e-031 -7.674789906
rhand  -7.920061211e-032 -33.2840004 9.303460121
rfingers  -90 -7.125020027 -90
rthumb  -92.93752616 -24.25625642 -97.11982154
rfemur  -27.36249924 15.07289982 1.228309989
rtibia  -0 0 70.6147995
rfoot  -0 -17.96150017 -8.115010262
rtoes  5.373923086 19.29304026 -105.8922705
lfemur  -1.624729991 3.860840082 -17.8491993
ltibia  -0 0 52.67259979
lfoot  -0 -11.7524004 -16.13159943
ltoes  -4.250644065 -19.5611806 -102.515957
